<svg xmlns:xlink="http://www.w3.org/1999/xlink" xmlns="http://www.w3.org/2000/svg" width="24" height="24"><g fill="none" fill-rule="evenodd"><path d="M0 0h24v24H0z"/><path fill="#FFF" d="M17.023 12.095a1.5 1.5 0 011.161.105c.766.408 1.859 1.135 2.96 2.16 1.112 1.036 1.99 2.179 2.534 3.44a1.5 1.5 0 01-.023 1.238c-.366.77-1.088 1.84-2.232 2.903-.505.47-1.057.896-1.644 1.26a5.11 5.11 0 01-5.241.145C9.2 20.32 4.019 15.666.643 9.36a5.6 5.6 0 01.314-5.736C2.157 1.847 3.664.548 5.547.05a1.5 1.5 0 011.25.225A23.186 23.186 0 019.43 2.506c1.022 1.012 1.823 2.018 2.325 3.027a1.5 1.5 0 01.097 1.088L11.2 8.858l3.71 3.912 2.113-.675zM3.443 5.301a2.594 2.594 0 00-.15 2.652c3.065 5.726 7.838 10.013 12.716 12.78a2.114 2.114 0 002.173-.07 7.828 7.828 0 001.199-.92 8.278 8.278 0 001.207-1.403c-.367-.612-.873-1.211-1.489-1.785a12.805 12.805 0 00-1.808-1.396l-2.367.755a1.5 1.5 0 01-1.544-.397l-4.95-5.22a1.5 1.5 0 01-.352-1.453l.717-2.454c-.35-.542-.854-1.137-1.474-1.75a20.233 20.233 0 00-1.645-1.45c-.817.4-1.57 1.132-2.232 2.111z"/></g></svg>