<svg xmlns:xlink="http://www.w3.org/1999/xlink" xmlns="http://www.w3.org/2000/svg" width="24" height="24"><g fill="none" fill-rule="evenodd"><path d="M0 0h24v24H0z"/><path fill="#FFF" d="M17.182.123l.483.13a.75.75 0 01.53.918L16.633 7H22a1 1 0 011 1v5a1 1 0 01-1 1h-.167l-.604 7.25A3 3 0 0118.24 24H5.76a3 3 0 01-2.99-2.75L2.168 14H2a1 1 0 01-1-1V8a1 1 0 011-1h5.366L5.805 1.17a.75.75 0 01.53-.918l.483-.13a.75.75 0 01.919.531L9.437 7h5.125L16.263.653a.75.75 0 01.919-.53zM19.826 14H4.174l.59 7.083A1 1 0 005.76 22h12.48a1 1 0 00.996-.917l.59-7.083zM7.902 9H3v3h18V9h-4.903l-.36 1.347a.75.75 0 01-.919.53l-.483-.13a.75.75 0 01-.53-.918L14.026 9H9.973l.222.83a.75.75 0 01-.53.918l-.483.13a.75.75 0 01-.919-.531L7.902 9z"/></g></svg>