<svg xmlns:xlink="http://www.w3.org/1999/xlink" xmlns="http://www.w3.org/2000/svg" width="20" height="20"><g fill="none" fill-rule="evenodd"><path d="M0 0h20v20H0z"/><path fill="#FFF" d="M15.995 2.375c.255 0 .485.156.58.393l2.004 5.006a.61.61 0 01.044.235c-.005 1.452-.716 2.355-1.996 2.57v7.41c0 .345-.28.624-.626.624h-12a.625.625 0 01-.624-.625l-.001-7.405c-1.281-.21-1.994-1.116-2.001-2.574 0-.08.015-.159.044-.233L3.404 2.77a.625.625 0 01.58-.395zm-5.987 7.499c-.447.494-1.13.756-2.017.756-.883 0-1.562-.26-2.007-.75-.333.362-.79.599-1.357.698v6.785h2.751v-4.36c0-.314.232-.573.533-.618l.092-.007H12c.346 0 .625.28.625.625v4.36h2.752v-6.78c-.58-.096-1.045-.334-1.378-.7-.448.479-1.12.733-1.99.733-.874 0-1.55-.257-2-.742zm1.366 3.754H8.628v3.735h2.746v-3.735zm4.198-10.003H4.409L2.627 8.12c.035.904.426 1.26 1.358 1.26.975 0 1.371-.393 1.392-1.387.017-.828 1.257-.81 1.25.019C6.618 8.996 7 9.38 7.99 9.38c.993 0 1.382-.387 1.382-1.374 0-.829 1.241-.835 1.25-.006.01.98.401 1.366 1.386 1.366.983 0 1.372-.385 1.38-1.364.006-.834 1.256-.824 1.25.01-.008.985.371 1.368 1.356 1.368.947 0 1.343-.357 1.376-1.259l-1.8-4.496z"/></g></svg>