<?xml version="1.0" encoding="UTF-8"?>
<svg width="172px" height="37px" viewBox="0 0 215 46" version="1.1" xmlns="http://www.w3.org/2000/svg" xmlns:xlink="http://www.w3.org/1999/xlink">
    <!-- Generator: Sketch 60.1 (88133) - https://sketch.com -->
    <title>woordmerk33</title>
    <desc>Created with Sketch.</desc>
    <g id="↩️-Symbols" stroke="none" stroke-width="1" fill="none" fill-rule="evenodd">
        <g id="LOGO-/-line-/-op-blauw" transform="translate(-29.000000, -23.000000)">
            <g id="woordmerk33" transform="translate(29.604000, 23.795904)">
                <path d="M129.22,13.9247965 L129.22,42.3786965 C128.013,42.3168965 126.901,41.7916965 126.066,40.9265965 C125.201,40.0614965 124.707,38.7948965 124.707,37.4973965 L124.707,13.9247965 L129.22,13.9247965 Z M171.9,13.5229965 C175.606,13.5229965 178.666,16.8288965 178.666,20.8760965 L178.666,30.3915965 L169.648,30.3915965 L169.648,37.0955965 L174.157,37.0955965 L174.157,34.5314965 L178.666,34.5314965 L178.666,35.0258965 C178.666,39.0730965 175.606,42.3786965 171.9,42.3786965 C168.194,42.3786965 165.139,39.0730965 165.139,35.0258965 L165.139,20.8760965 C165.139,16.8288965 168.194,13.5229965 171.9,13.5229965 Z M99.837,4.50189647 C102.308,4.50189647 104.317,6.69549647 104.317,9.41439647 L104.317,25.6955965 C104.317,28.4144965 102.308,30.6076965 99.837,30.6076965 L95.328,30.6076965 L95.328,41.9770965 L90.819,41.9770965 L90.819,4.50189647 L99.837,4.50189647 Z M118.909,13.9247965 L118.909,18.8059965 L114.4,18.8059965 L114.4,41.9770965 L109.891,41.9770965 L109.891,18.8059965 C109.891,16.0874965 111.93,13.9247965 114.4,13.9247965 L118.909,13.9247965 Z M153.664,13.9247965 C156.135,13.9247965 158.173,16.0874965 158.173,18.8059965 L158.173,41.9770965 L153.664,41.9770965 L153.664,18.8059965 L149.151,18.8059965 L149.151,41.9770965 L144.642,41.9770965 L144.642,18.8059965 L140.133,18.8059965 L140.133,41.9770965 L135.624,41.9770965 L135.624,13.9247965 L153.664,13.9247965 Z M194.554,13.9247965 L194.554,18.8059965 L190.045,18.8059965 L190.045,41.9770965 L185.536,41.9770965 L185.536,18.8059965 C185.536,16.0874965 187.541,13.9247965 190.045,13.9247965 L194.554,13.9247965 Z M209.305,13.9247965 C211.804,13.9247965 213.814,16.0874965 213.814,18.8059965 L213.814,41.9770965 L204.796,41.9770965 C202.292,41.9770965 200.282,39.8144965 200.282,37.0955965 L200.282,28.8158965 C200.282,26.0973965 202.292,23.9037965 204.796,23.9037965 L209.305,23.9037965 L209.305,18.8059965 L201.271,18.8059965 L201.271,13.9247965 L209.305,13.9247965 Z M209.305,28.8158965 L204.796,28.8158965 L204.796,37.0955965 L209.305,37.0955965 L209.305,28.8158965 Z M99.837,9.41439647 L95.328,9.41439647 L95.328,25.6955965 L99.837,25.6955965 L99.837,9.41439647 Z M174.157,18.8059965 L169.648,18.8059965 L169.648,25.5103965 L174.157,25.5103965 L174.157,18.8059965 Z M129.22,4.50189647 L129.22,9.41439647 L124.707,9.41439647 L124.707,4.50189647 L129.22,4.50189647 Z" id="woordmerk" fill="#FFFFFF"></path>
                <path d="M29.0047,1.01039647 C29.8081,0.886896468 30.1169,1.22849647 30.1478,1.68959647 C30.2096,2.15469647 29.7772,2.46349647 29.4062,2.52519647 C14.1781,4.78019647 4.6334,11.9784965 4.6334,21.4630965 C4.6334,32.1217965 19.5526,40.7720965 37.9008,40.7720965 C54.5199,40.7720965 67.6764,35.0258965 70.641,26.4369965 C70.826,25.9425965 71.292,25.7882965 71.695,25.9116965 C72.157,26.0356965 72.375,26.5295965 72.218,26.9930965 C70.518,31.8743965 66.0086,36.3233965 59.556,39.4744965 C53.0663,42.6257965 44.8801,44.3867965 36.4798,44.3867965 C26.8115,44.3867965 17.6992,42.1314965 10.8422,38.0843965 C3.8302,33.9444965 1.05870868e-12,28.3836965 1.05870868e-12,22.4518965 C1.05870868e-12,17.2923965 2.9963,12.2872965 8.4638,8.36389647 C12.757,5.30539647 18.3791,3.04799647 24.6184,1.75129647 C26.8115,1.29029647 28.2944,1.07209647 29.0047,1.01039647 Z M35.8621,2.30699647 C57.9171,-3.13070353 67.3675,2.40169647 70.427,5.05799647 C73.116,7.40599647 74.413,10.3409965 74.071,13.3994965 C73.207,19.0842965 65.9798,25.4794965 54.2399,26.0973965 C53.964,26.1282965 53.684,25.9425965 53.5316,25.6647965 C53.5316,25.6647965 51.9875,22.6679965 51.4933,21.6792965 C50.3486,24.3054965 46.239,33.6974965 46.2102,33.6974965 C45.436,35.3963965 44.5425,36.9103965 42.2859,36.7250965 C38.6111,36.3850965 35.9856,35.0875965 34.8429,32.9865965 C31.9699,27.6109965 25.638,23.5328965 13.6839,19.3620965 C11.2128,18.4972965 10.8422,17.6319965 10.9349,17.0449965 C11.1819,15.8709965 13.5604,15.2222965 17.0507,15.4078965 C26.2556,15.9022965 34.4719,19.4551965 40.8969,25.6647965 C41.2358,24.7376965 46.6096,9.22879647 46.9802,8.14739647 C45.9302,8.33299647 38.8273,9.56879647 38.8273,9.56879647 C38.642,9.59969647 38.4876,9.50699647 38.4258,9.35229647 L38.4258,9.35229647 L35.6459,2.80099647 C35.5841,2.71039647 35.5841,2.58699647 35.6459,2.49229647 C35.6768,2.40169647 35.7694,2.33999647 35.8621,2.30699647 Z M57.4848,7.15899647 C57.2995,7.59129647 52.9428,18.1880965 52.4816,19.3312965 C58.3166,18.0028965 65.3004,11.7310965 65.8233,9.35229647 C65.8563,9.25959647 65.8563,9.19789647 65.8563,9.13619647 C65.8563,8.91999647 65.7616,8.85829647 65.7327,8.82739647 C64.8968,8.27129647 61.2526,7.18989647 57.4848,7.15899647 Z" id="beeldmerk" fill="#FFD400"></path>
            </g>
        </g>
    </g>
</svg>