<svg xmlns:xlink="http://www.w3.org/1999/xlink" xmlns="http://www.w3.org/2000/svg" width="30" height="30"><g fill="none" fill-rule="evenodd" transform="rotate(-180 15 15)"><circle cx="15" cy="15" r="15" fill="#CCCFF0"/><path d="M5 5h20v20H5z"/><path fill="#134395" d="M17.412 7.77l6.18 6.18.007.007.354.353a1 1 0 010 1.415l-6.54 6.54a1 1 0 01-1.415 0l-.354-.353a1 1 0 010-1.414l4.248-4.249-12.642.001a1 1 0 01-1-1v-.5a1 1 0 011-1h12.607l-4.213-4.213a1 1 0 010-1.414l.354-.353a1 1 0 011.414 0z"/></g></svg>